<svg width="158" height="274" viewBox="0 0 158 274" fill="none" xmlns="http://www.w3.org/2000/svg">
<path d="M112.787 24.6638L113.986 23.38L112.787 24.6638ZM0.868025 264.85C0.509251 265.752 0.949067 266.773 1.85038 267.132L16.5381 272.979C17.4394 273.337 18.4609 272.898 18.8197 271.996C19.1785 271.095 18.7387 270.073 17.8374 269.715L4.78159 264.518L9.97854 251.462C10.3373 250.561 9.8975 249.539 8.99618 249.18C8.09487 248.822 7.07337 249.261 6.7146 250.163L0.868025 264.85ZM52.2671 2.40018C52.0569 4.14407 52.0568 4.14406 52.0568 4.14406C52.057 4.14409 52.0572 4.14411 52.0576 4.14416C52.0585 4.14427 52.06 4.14445 52.0622 4.14471C52.0665 4.14524 52.0733 4.14608 52.0827 4.14723C52.1014 4.14953 52.1301 4.1531 52.1685 4.15795C52.2454 4.16766 52.3614 4.18252 52.5143 4.20274C52.8203 4.24319 53.2743 4.30509 53.8603 4.39015C55.0325 4.56028 56.7322 4.82297 58.831 5.19183C63.0307 5.92989 68.8189 7.09132 75.1729 8.78387C87.9676 12.1921 102.726 17.6713 111.588 25.9475L113.986 23.38C104.443 14.4684 88.941 8.81585 76.0772 5.38922C69.6018 3.66435 63.7111 2.4826 59.4391 1.73183C57.3022 1.35628 55.5678 1.08814 54.365 0.913554C53.7635 0.826252 53.2947 0.762317 52.9748 0.72002C52.8148 0.698871 52.692 0.68313 52.6084 0.672581C52.5666 0.667305 52.5346 0.663329 52.5127 0.660622C52.5017 0.65927 52.4933 0.658234 52.4874 0.657513C52.4844 0.657152 52.4821 0.656871 52.4804 0.656666C52.4796 0.656565 52.4788 0.65647 52.4784 0.656419C52.4777 0.656345 52.4773 0.656289 52.2671 2.40018ZM111.588 25.9475C146.72 58.7547 157.204 89.8205 153.598 117.9C149.975 146.104 132.089 171.726 109.567 193.444C87.0699 215.136 60.1362 232.751 38.789 244.954C28.1226 251.052 18.8671 255.789 12.2814 259.001C8.98889 260.606 6.36455 261.83 4.56588 262.651C3.66657 263.062 2.97373 263.372 2.50706 263.579C2.27373 263.682 2.09695 263.76 1.97917 263.811C1.92029 263.837 1.87616 263.856 1.84709 263.869C1.83256 263.875 1.82179 263.88 1.81482 263.883C1.81133 263.884 1.80897 263.885 1.80723 263.886C1.80582 263.886 1.80537 263.887 2.5 265.5C3.19462 267.113 3.1961 267.113 3.19853 267.112C3.20062 267.111 3.204 267.109 3.20817 267.107C3.21652 267.104 3.22866 267.099 3.24457 267.092C3.27641 267.078 3.32334 267.058 3.38502 267.031C3.50842 266.977 3.69093 266.897 3.93008 266.791C4.40837 266.579 5.11328 266.263 6.02507 265.847C7.8486 265.014 10.4999 263.778 13.8212 262.158C20.4632 258.919 29.7881 254.146 40.5324 248.004C62.0066 235.728 89.2159 217.947 112.005 195.972C134.769 174.023 153.311 147.707 157.082 118.348C160.869 88.8637 149.711 56.7409 113.986 23.38L111.588 25.9475Z" fill="url(#paint0_linear_237_3468)"/>
<defs>
<linearGradient id="paint0_linear_237_3468" x1="45.2946" y1="3.00254" x2="48.3215" y2="107.268" gradientUnits="userSpaceOnUse">
<stop stop-color="#59C8C8" stop-opacity="0"/>
<stop offset="1" stop-color="#59C8C8"/>
</linearGradient>
</defs>
</svg>
