<svg width="43" height="43" viewBox="0 0 43 43" fill="none" xmlns="http://www.w3.org/2000/svg">
<rect x="0.61208" y="0.61208" width="41.7758" height="41.7758" rx="20.3941" fill="url(#paint0_linear_237_1075)" stroke="url(#paint1_linear_237_1075)" stroke-width="1.22416"/>
<path d="M20.8296 26.9333C21.1999 27.3035 21.8001 27.3035 22.1704 26.9333L28.204 20.8997C28.5743 20.5294 28.5743 19.9291 28.204 19.5589C27.8338 19.1886 27.2335 19.1886 26.8632 19.5589L21.5 24.9221L16.1368 19.5589C15.7665 19.1886 15.1662 19.1886 14.796 19.5589C14.4257 19.9291 14.4257 20.5294 14.796 20.8997L20.8296 26.9333ZM20.5519 24.3667L20.5519 26.2629L22.4481 26.2629L22.4481 24.3667L20.5519 24.3667Z" fill="white"/>
<defs>
<linearGradient id="paint0_linear_237_1075" x1="21.5" y1="0" x2="21.5" y2="43" gradientUnits="userSpaceOnUse">
<stop stop-color="#A17FC7"/>
<stop offset="1" stop-color="#A88BCB"/>
</linearGradient>
<linearGradient id="paint1_linear_237_1075" x1="21.5" y1="0" x2="21.1666" y2="42.9433" gradientUnits="userSpaceOnUse">
<stop stop-color="white"/>
<stop offset="1" stop-color="white" stop-opacity="0"/>
</linearGradient>
</defs>
</svg>
