<svg width="226" height="243" viewBox="0 0 226 243" fill="none" xmlns="http://www.w3.org/2000/svg">
<path d="M133 79.5L134.711 79.1021L133 79.5ZM221.755 242.239C222.716 242.375 223.604 241.705 223.739 240.745L225.942 225.09C226.077 224.13 225.408 223.241 224.447 223.106C223.486 222.971 222.598 223.64 222.463 224.601L220.505 238.516L206.59 236.558C205.63 236.423 204.741 237.092 204.606 238.053C204.471 239.014 205.14 239.902 206.101 240.037L221.755 242.239ZM0.526367 2.17407C0.335722 3.92021 0.335718 3.92021 0.336161 3.92026C0.336905 3.92034 0.337793 3.92043 0.339277 3.9206C0.342243 3.92093 0.346987 3.92145 0.353495 3.92217C0.366511 3.92362 0.386583 3.92587 0.413607 3.92894C0.467656 3.93507 0.549509 3.94447 0.658329 3.95728C0.875972 3.98292 1.20147 4.02223 1.62811 4.07639C2.48142 4.18471 3.73919 4.35242 5.3478 4.58898C8.56529 5.06214 13.1847 5.81049 18.7773 6.90948C29.9677 9.1085 45.0291 12.7065 60.5422 18.3019C76.0663 23.9012 91.968 31.4741 104.89 41.59C117.805 51.7001 127.657 64.2787 131.289 79.8979L134.711 79.1021C130.843 62.4713 120.386 49.2591 107.056 38.8238C93.7327 28.3941 77.4534 20.6669 61.7341 14.9972C46.0039 9.32356 30.7593 5.68385 19.4547 3.46239C13.7998 2.35114 9.12436 1.59355 5.85892 1.11334C4.22606 0.873215 2.94533 0.702385 2.07051 0.591333C1.63309 0.535805 1.29712 0.495218 1.0693 0.468383C0.955394 0.454965 0.868523 0.444985 0.80953 0.438294C0.780033 0.434948 0.757504 0.432424 0.74205 0.430705C0.734323 0.429845 0.728364 0.429186 0.724187 0.428725C0.722098 0.428495 0.720304 0.428298 0.719259 0.428183C0.717912 0.428036 0.717012 0.427937 0.526367 2.17407ZM131.289 79.8979C138.572 111.216 160.974 151.688 181.42 184.185C191.664 200.467 201.455 214.806 208.685 225.074C212.3 230.208 215.276 234.326 217.349 237.162C218.386 238.579 219.197 239.677 219.749 240.42C220.025 240.792 220.236 241.076 220.379 241.266C220.451 241.362 220.505 241.434 220.541 241.483C220.559 241.507 220.573 241.525 220.583 241.538C220.587 241.544 220.591 241.549 220.593 241.552C220.594 241.553 220.595 241.555 220.596 241.555C220.597 241.556 220.597 241.557 222 240.5C223.403 239.443 223.403 239.443 223.402 239.442C223.402 239.442 223.401 239.441 223.4 239.439C223.398 239.436 223.395 239.432 223.39 239.426C223.381 239.415 223.368 239.397 223.351 239.373C223.315 239.326 223.262 239.256 223.192 239.162C223.052 238.974 222.843 238.694 222.569 238.326C222.022 237.589 221.216 236.499 220.185 235.088C218.123 232.268 215.16 228.167 211.558 223.051C204.353 212.819 194.597 198.533 184.394 182.315C163.944 149.812 141.846 109.784 134.711 79.1021L131.289 79.8979Z" fill="url(#paint0_linear_237_3968)"/>
<defs>
<linearGradient id="paint0_linear_237_3968" x1="-0.880891" y1="-3.32593" x2="-0.491234" y2="200.838" gradientUnits="userSpaceOnUse">
<stop offset="0.0479189" stop-color="white" stop-opacity="0"/>
<stop offset="1" stop-color="white"/>
</linearGradient>
</defs>
</svg>
