<svg width="50" height="64" viewBox="0 0 50 64" fill="none" xmlns="http://www.w3.org/2000/svg">
<path d="M40.4737 4.50567L39.814 6.13361L40.4737 4.50567ZM30.7999 61.9423C31.0441 62.8812 32.0033 63.4442 32.9421 63.1999L48.2412 59.2189C49.1801 58.9746 49.7431 58.0155 49.4988 57.0766C49.2545 56.1378 48.2954 55.5748 47.3565 55.8191L33.7573 59.3578L30.2186 45.7585C29.9743 44.8197 29.0152 44.2567 28.0764 44.501C27.1375 44.7453 26.5745 45.7044 26.8188 46.6432L30.7999 61.9423ZM1.25215 4.05128C1.57065 5.77867 1.57051 5.7787 1.57047 5.77871C1.57059 5.77868 1.57065 5.77867 1.57089 5.77863C1.57136 5.77854 1.57224 5.77838 1.5735 5.77815C1.57603 5.77769 1.58014 5.77693 1.5858 5.7759C1.59713 5.77384 1.61468 5.77066 1.63831 5.76641C1.68557 5.75792 1.75713 5.74518 1.85179 5.72864C2.04111 5.69555 2.32279 5.64728 2.68725 5.58746C3.41626 5.4678 4.47585 5.30203 5.78944 5.11917C8.41839 4.7532 12.0558 4.32001 16.0914 4.05015C24.265 3.50359 33.705 3.65819 39.814 6.13361L41.1333 2.87772C34.2059 0.0706971 24.035 -0.00189666 15.857 0.544959C11.7168 0.821809 7.9932 1.26549 5.30507 1.6397C3.96012 1.82693 2.87215 1.99708 2.11825 2.12082C1.74125 2.1827 1.44763 2.233 1.24702 2.26806C1.14671 2.28559 1.06965 2.29931 1.01702 2.30876C0.990706 2.31349 0.970502 2.31716 0.956558 2.31969C0.949585 2.32096 0.944178 2.32195 0.940353 2.32265C0.938441 2.323 0.936925 2.32328 0.935807 2.32349C0.935248 2.32359 0.934709 2.32369 0.934429 2.32374C0.93399 2.32382 0.93365 2.32388 1.25215 4.05128ZM39.814 6.13361C44.0769 7.86094 45.9546 11.6459 46.1575 16.9968C46.3625 22.4021 44.8078 29.0185 42.5467 35.5569C40.2978 42.06 37.4075 48.3265 35.071 52.9795C33.9044 55.3026 32.8796 57.2161 32.1477 58.5466C31.7819 59.2117 31.4894 59.7308 31.2892 60.0821C31.1892 60.2578 31.1122 60.3915 31.0607 60.4805C31.0349 60.525 31.0156 60.5583 31.0028 60.5802C30.9965 60.5911 30.9918 60.5991 30.9888 60.6042C30.9873 60.6068 30.9862 60.6086 30.9856 60.6097C30.9853 60.6103 30.9851 60.6105 30.9849 60.6108C30.9849 60.6109 30.985 60.6108 32.4998 61.5C34.0146 62.3892 34.0148 62.3888 34.0152 62.3881C34.0155 62.3876 34.016 62.3868 34.0165 62.3859C34.0176 62.384 34.0192 62.3814 34.0211 62.378C34.025 62.3714 34.0306 62.3618 34.0379 62.3492C34.0525 62.3242 34.0738 62.2877 34.1014 62.2399C34.1567 62.1443 34.2376 62.0037 34.3417 61.821C34.5499 61.4556 34.8509 60.9213 35.2258 60.2397C35.9754 58.877 37.0211 56.9243 38.2104 54.5559C40.5857 49.8259 43.5488 43.4079 45.8668 36.7051C48.1725 30.0377 49.8979 22.9268 49.668 16.8637C49.436 10.7461 47.1638 5.3213 41.1333 2.87772L39.814 6.13361Z" fill="url(#paint0_linear_237_3574)"/>
<defs>
<linearGradient id="paint0_linear_237_3574" x1="-2.53249" y1="5.0927" x2="6.67567" y2="44.6178" gradientUnits="userSpaceOnUse">
<stop stop-color="white" stop-opacity="0"/>
<stop offset="1" stop-color="white"/>
</linearGradient>
</defs>
</svg>
