<svg width="28" height="49" viewBox="0 0 28 49" fill="none" xmlns="http://www.w3.org/2000/svg">
<path d="M19.4865 4.74273L18.8039 5.4736L19.4865 4.74273ZM0.447655 43.9194C0.243401 44.4325 0.493791 45.0141 1.00692 45.2183L9.3688 48.5469C9.88192 48.7511 10.4635 48.5007 10.6677 47.9876C10.872 47.4745 10.6216 46.8929 10.1085 46.6887L2.67568 43.73L5.63436 36.2972C5.83861 35.7841 5.58822 35.2025 5.0751 34.9983C4.56197 34.794 3.98042 35.0444 3.77616 35.5575L0.447655 43.9194ZM9.54876 1.08694C9.4291 2.07976 9.42896 2.07974 9.42884 2.07973C9.42884 2.07972 9.42875 2.07971 9.42874 2.07971C9.42872 2.07971 9.42881 2.07972 9.429 2.07974C9.42938 2.07979 9.43017 2.07989 9.43138 2.08004C9.43378 2.08033 9.43783 2.08084 9.44347 2.08155C9.45474 2.08297 9.4724 2.08523 9.4961 2.08837C9.54351 2.09463 9.61507 2.10438 9.70817 2.1179C9.89443 2.14493 10.1665 2.18696 10.5034 2.24618C11.1784 2.3648 12.1081 2.55139 13.1268 2.82277C15.2138 3.37869 17.4865 4.2433 18.8039 5.4736L20.169 4.01186C18.4641 2.41984 15.768 1.45656 13.6416 0.890162C12.5538 0.600383 11.5657 0.402216 10.8496 0.276364C10.491 0.213341 10.1992 0.168207 9.99545 0.138637C9.89355 0.123847 9.81359 0.112937 9.75822 0.105617C9.73054 0.101957 9.70899 0.099193 9.69391 0.0972903C9.68637 0.0963388 9.68045 0.0956025 9.67619 0.0950767C9.67406 0.0948139 9.67234 0.0946036 9.67105 0.0944455C9.6704 0.0943664 9.66985 0.0943003 9.66941 0.0942472C9.6692 0.0942207 9.66895 0.0941905 9.66884 0.0941772C9.66861 0.0941503 9.66842 0.0941266 9.54876 1.08694ZM18.8039 5.4736C24.4526 10.7486 26.0376 15.6356 25.482 19.9619C24.9172 24.3593 22.1131 28.4261 18.4637 31.945C14.8289 35.4499 10.462 38.3086 6.98243 40.2978C5.24675 41.29 3.74101 42.0607 2.67102 42.5824C2.1362 42.8433 1.71074 43.0416 1.42042 43.1742C1.27527 43.2405 1.16395 43.2903 1.08968 43.3232C1.05254 43.3396 1.02467 43.3519 1.00647 43.3598C0.997372 43.3638 0.990691 43.3667 0.986478 43.3685C0.984371 43.3694 0.982881 43.3701 0.982016 43.3705C0.981581 43.3706 0.981403 43.3707 0.981185 43.3708C0.981161 43.3708 0.981294 43.3708 1.37675 44.2893C1.77221 45.2077 1.77266 45.2075 1.77327 45.2073C1.77368 45.2071 1.77444 45.2068 1.77526 45.2064C1.77691 45.2057 1.77919 45.2047 1.78208 45.2035C1.78787 45.201 1.79614 45.1974 1.80684 45.1927C1.82824 45.1833 1.85937 45.1697 1.89981 45.1518C1.98071 45.1159 2.0989 45.063 2.25115 44.9935C2.55562 44.8545 2.99644 44.6489 3.54765 44.3801C4.64971 43.8427 6.19495 43.0517 7.97501 42.0341C11.5269 40.0036 16.0506 37.0502 19.8519 33.3847C23.6387 29.7333 26.8164 25.2715 27.4657 20.2167C28.124 15.0909 26.1552 9.60205 20.169 4.01186L18.8039 5.4736Z" fill="url(#paint0_linear_237_437)"/>
<defs>
<linearGradient id="paint0_linear_237_437" x1="8.40384" y1="1.18585" x2="8.90088" y2="18.3068" gradientUnits="userSpaceOnUse">
<stop stop-color="#59C8C8" stop-opacity="0"/>
<stop offset="1" stop-color="#59C8C8"/>
</linearGradient>
</defs>
</svg>
