<svg width="18" height="63" viewBox="0 0 18 63" fill="none" xmlns="http://www.w3.org/2000/svg">
<path d="M3.85494 32.09L4.82895 31.8635L3.85494 32.09ZM16.3499 62.0899C16.9022 62.0924 17.3519 61.6468 17.3545 61.0945L17.3961 52.0946C17.3986 51.5423 16.953 51.0926 16.4007 51.09C15.8484 51.0875 15.3986 51.5331 15.3961 52.0854L15.3591 60.0853L7.35921 60.0483C6.80693 60.0458 6.35715 60.4914 6.3546 61.0437C6.35205 61.596 6.79769 62.0458 7.34997 62.0483L16.3499 62.0899ZM3.85473 1.0899C2.99477 0.579528 2.99437 0.580216 2.99394 0.580938C2.99377 0.581223 2.99332 0.581979 2.99299 0.58255C2.99231 0.583693 2.99156 0.58497 2.99074 0.586382C2.98908 0.589207 2.98712 0.592572 2.98487 0.59648C2.98036 0.604296 2.97466 0.614284 2.96783 0.626461C2.95417 0.650815 2.936 0.683924 2.91378 0.725935C2.86936 0.809961 2.8088 0.929566 2.73592 1.08592C2.59013 1.39867 2.39521 1.85817 2.18162 2.47374C1.75431 3.70526 1.25322 5.55876 0.92083 8.10836C0.255917 13.2085 0.26775 21.0798 2.88093 32.3165L4.82895 31.8635C2.26241 20.8273 2.27414 13.1986 2.90405 8.36691C3.21907 5.95059 3.68913 4.23023 4.07111 3.12935C4.26216 2.57873 4.43142 2.1824 4.54866 1.93088C4.60729 1.8051 4.65295 1.71545 4.68186 1.66076C4.69632 1.63341 4.7066 1.6148 4.71223 1.60477C4.71504 1.59975 4.71669 1.59688 4.71712 1.59614C4.71733 1.59577 4.71724 1.59593 4.71684 1.59661C4.71664 1.59696 4.71636 1.59744 4.716 1.59805C4.71582 1.59835 4.71549 1.59891 4.7154 1.59906C4.71505 1.59965 4.71468 1.60027 3.85473 1.0899ZM2.88093 32.3165C5.38988 43.1049 8.54613 50.4408 11.0946 55.0985C12.3686 57.427 13.4899 59.0846 14.301 60.1685C14.7065 60.7104 15.0343 61.1087 15.2648 61.3756C15.38 61.509 15.4709 61.6095 15.5349 61.6787C15.567 61.7133 15.5923 61.7401 15.6106 61.7592C15.6197 61.7687 15.6271 61.7764 15.6327 61.7821C15.6355 61.785 15.6379 61.7874 15.6398 61.7893C15.6407 61.7903 15.6416 61.7912 15.6423 61.7919C15.6427 61.7923 15.6431 61.7927 15.6433 61.7929C15.6437 61.7933 15.6441 61.7937 16.3545 61.0899C17.0649 60.3861 17.0652 60.3864 17.0655 60.3867C17.0656 60.3868 17.0659 60.3871 17.066 60.3872C17.0663 60.3875 17.0664 60.3876 17.0665 60.3877C17.0665 60.3878 17.0661 60.3874 17.0653 60.3865C17.0636 60.3848 17.0602 60.3812 17.0549 60.3758C17.0445 60.3648 17.027 60.3464 17.0027 60.3201C16.9541 60.2677 16.8786 60.1843 16.7784 60.0683C16.5782 59.8364 16.2796 59.4745 15.9022 58.9702C15.1476 57.9619 14.0776 56.3838 12.8491 54.1385C10.3925 49.6486 7.29895 42.4845 4.82895 31.8635L2.88093 32.3165Z" fill="url(#paint0_linear_237_773)"/>
<defs>
<linearGradient id="paint0_linear_237_773" x1="2.35449" y1="2.0899" x2="-11.1974" y2="54.3741" gradientUnits="userSpaceOnUse">
<stop offset="0.155503" stop-color="white" stop-opacity="0"/>
<stop offset="1" stop-color="white"/>
</linearGradient>
</defs>
</svg>
