<svg width="94" height="199" viewBox="0 0 94 199" fill="none" xmlns="http://www.w3.org/2000/svg">
<path d="M12.1192 51.4389L13.83 51.0411L12.1192 51.4389ZM89.8834 198.68C90.8447 198.81 91.7295 198.136 91.8597 197.175L93.9812 181.509C94.1114 180.548 93.4377 179.663 92.4763 179.533C91.515 179.403 90.6302 180.076 90.5 181.038L88.6142 194.963L74.6892 193.077C73.7279 192.947 72.8431 193.62 72.7129 194.582C72.5827 195.543 73.2564 196.428 74.2178 196.558L89.8834 198.68ZM3.52609 4.43889C5.17554 3.83501 5.17538 3.83459 5.1752 3.83411C5.17511 3.83386 5.17491 3.8333 5.17473 3.8328C5.17436 3.8318 5.17389 3.83053 5.17333 3.829C5.1722 3.82593 5.17069 3.82183 5.1688 3.81673C5.16502 3.80653 5.15975 3.79235 5.15309 3.77455C5.13977 3.73899 5.12082 3.68885 5.09712 3.62726C5.04989 3.50453 4.98289 3.33402 4.90311 3.14125C4.75221 2.7766 4.52417 2.25494 4.27961 1.83242C4.17321 1.64859 3.98018 1.33321 3.70608 1.07347C3.57983 0.953834 3.27384 0.686242 2.80256 0.5708C2.18645 0.41988 1.5331 0.590094 1.06682 1.04246C0.710104 1.38854 0.578649 1.78807 0.526995 1.973C0.465164 2.19436 0.438277 2.4108 0.424741 2.58975C0.397424 2.9509 0.40922 3.38605 0.445916 3.88123C0.73169 7.73753 2.9222 19.6466 10.4083 51.8368L13.83 51.0411C6.31611 18.7313 4.21009 7.14033 3.94933 3.62161C3.91771 3.19491 3.91979 2.96013 3.92776 2.85472C3.93187 2.8004 3.93388 2.83441 3.9105 2.9181C3.8973 2.96536 3.81386 3.272 3.51301 3.56387C3.1026 3.96204 2.51297 4.11675 1.96674 3.98294C1.56535 3.88462 1.33541 3.66677 1.28966 3.62343C1.17659 3.51627 1.16242 3.45968 1.23916 3.59226C1.36088 3.80254 1.51619 4.14416 1.65707 4.48458C1.72319 4.64435 1.77919 4.78683 1.81848 4.88895C1.83804 4.93978 1.85325 4.98004 1.86326 5.00677C1.86826 5.02011 1.87194 5.03004 1.87421 5.03618C1.87535 5.03924 1.87613 5.04136 1.87654 5.04247C1.87674 5.04303 1.87686 5.04334 1.87688 5.04339C1.87689 5.04342 1.87683 5.04326 1.87683 5.04327C1.87675 5.04306 1.87665 5.04277 3.52609 4.43889ZM10.4083 51.8368C17.6867 83.134 37.3203 119.715 55.0321 148.363C63.9033 162.711 72.3216 175.116 78.5224 183.934C81.6231 188.343 84.1703 191.857 85.9435 194.27C86.8301 195.477 87.5232 196.408 87.9954 197.039C88.2315 197.354 88.4124 197.594 88.5346 197.756C88.5956 197.837 88.6421 197.898 88.6734 197.94C88.689 197.96 88.7009 197.976 88.709 197.987C88.713 197.992 88.7161 197.996 88.7182 197.999C88.7192 198 88.7201 198.001 88.7206 198.002C88.7212 198.003 88.7216 198.003 90.1191 196.939C91.5166 195.875 91.5165 195.875 91.5161 195.874C91.5157 195.874 91.5151 195.873 91.5142 195.872C91.5124 195.869 91.5097 195.866 91.506 195.861C91.4987 195.851 91.4875 195.837 91.4725 195.817C91.4426 195.777 91.3976 195.718 91.338 195.639C91.2187 195.481 91.0407 195.245 90.8076 194.933C90.3414 194.311 89.6545 193.388 88.7744 192.19C87.0141 189.794 84.4813 186.3 81.396 181.913C75.2247 173.137 66.8466 160.792 58.0201 146.515C40.3366 117.913 20.9702 81.7439 13.83 51.0411L10.4083 51.8368Z" fill="url(#paint0_linear_237_3766)"/>
<defs>
<linearGradient id="paint0_linear_237_3766" x1="2.11914" y1="-1.06104" x2="2.5088" y2="203.103" gradientUnits="userSpaceOnUse">
<stop offset="0.0479189" stop-color="white" stop-opacity="0"/>
<stop offset="1" stop-color="white"/>
</linearGradient>
</defs>
</svg>
