<svg width="59" height="59" viewBox="0 0 59 59" fill="none" xmlns="http://www.w3.org/2000/svg">
<circle cx="29.5" cy="29.5" r="29.5" transform="matrix(-1 0 0 1 59 0)" fill="#AB91C4"/>
<path d="M22.9393 31.0607C22.3536 30.4749 22.3536 29.5251 22.9393 28.9393L32.4853 19.3934C33.0711 18.8076 34.0208 18.8076 34.6066 19.3934C35.1924 19.9792 35.1924 20.9289 34.6066 21.5147L26.1213 30L34.6066 38.4853C35.1924 39.0711 35.1924 40.0208 34.6066 40.6066C34.0208 41.1924 33.0711 41.1924 32.4853 40.6066L22.9393 31.0607ZM25 31.5L24 31.5L24 28.5L25 28.5L25 31.5Z" fill="white"/>
</svg>
